<?xml version="1.0" standalone="no"?>
<!DOCTYPE svg PUBLIC "-//W3C//DTD SVG 20010904//EN"
 "http://www.w3.org/TR/2001/REC-SVG-20010904/DTD/svg10.dtd">
<svg version="1.0" xmlns="http://www.w3.org/2000/svg"
 width="300.000000pt" height="113.000000pt" viewBox="0 0 300.000000 113.000000"
 preserveAspectRatio="xMidYMid meet">
<metadata>
Created by potrace 1.10, written by Peter Selinger 2001-2011
</metadata>
<g transform="translate(0.000000,113.000000) scale(0.100000,-0.100000)"
fill="#000000" stroke="none">
<path d="M349 953 c-116 -23 -211 -99 -267 -213 -23 -47 -27 -67 -27 -145 0
-78 4 -98 28 -151 98 -211 362 -288 559 -162 63 40 105 89 141 166 39 83 41
186 8 274 -65 169 -256 269 -442 231z m226 -67 c72 -32 117 -75 156 -148 30
-56 33 -71 34 -143 0 -96 -24 -157 -88 -223 -66 -68 -126 -95 -227 -100 -109
-5 -177 18 -248 86 -71 67 -94 119 -100 218 -4 73 -1 88 22 140 45 98 129 168
233 194 56 14 161 2 218 -24z"/>
<path d="M261 776 c-42 -23 -50 -52 -51 -184 0 -128 11 -173 45 -186 29 -11
131 -6 147 7 8 6 20 21 26 32 9 15 11 16 12 4 0 -33 34 -49 103 -49 59 0 68 3
86 26 19 24 21 40 21 169 0 139 0 142 -26 166 -21 20 -36 24 -86 24 -53 0 -62
-3 -84 -28 -20 -23 -25 -26 -30 -12 -16 40 -113 59 -163 31z m132 -47 c11 -14
17 -39 17 -74 l0 -53 -82 2 -83 1 -3 47 c-3 54 10 85 41 98 33 14 90 3 110
-21z m212 11 c10 -9 15 -32 15 -75 l0 -62 -80 0 -81 1 3 65 c3 58 6 67 28 79
28 14 93 10 115 -8z m-197 -214 c5 -73 -15 -96 -83 -96 -44 0 -57 4 -69 22
-14 20 -23 108 -12 119 2 2 40 4 83 3 l78 -1 3 -47z m212 -11 c0 -34 -5 -66
-12 -73 -7 -7 -38 -12 -70 -12 -68 0 -78 11 -78 92 l0 53 80 0 80 0 0 -60z"/>
<path d="M890 610 l0 -190 25 0 c25 0 25 1 25 88 0 98 7 112 57 112 44 0 53
-21 53 -119 l0 -81 28 0 27 0 -3 83 c-4 103 -8 123 -32 147 -21 21 -94 28
-105 10 -16 -26 -25 -3 -25 65 0 73 -1 75 -25 75 l-25 0 0 -190z"/>
<path d="M1660 630 c0 -168 0 -171 25 -195 33 -33 65 -33 65 0 0 16 -6 25 -15
25 -13 0 -15 26 -15 170 l0 170 -30 0 -30 0 0 -170z"/>
<path d="M1800 595 l0 -175 30 0 30 0 0 99 c0 105 -8 164 -20 156 -4 -3 -10 7
-13 21 -7 36 24 28 34 -10 5 -16 43 -82 86 -147 65 -99 82 -119 103 -119 l25
0 0 175 0 175 -30 0 -30 0 3 -122 c2 -76 0 -119 -6 -113 -5 6 -42 61 -82 123
-65 100 -75 112 -101 112 l-29 0 0 -175z m245 -113 c-8 -8 -37 10 -43 26 -2 7
4 12 12 12 9 0 20 8 24 18 5 12 8 8 10 -16 2 -19 1 -37 -3 -40z"/>
<path d="M2660 700 c0 -19 -5 -30 -14 -30 -13 0 -26 -20 -26 -41 0 -5 9 -9 20
-9 18 0 20 -7 20 -83 0 -98 10 -116 68 -124 40 -5 42 -4 42 21 0 21 -5 26 -25
26 -14 0 -25 3 -25 8 0 4 -2 40 -4 80 l-3 72 33 0 c29 0 33 3 30 23 -2 16 -11
23 -34 25 -29 3 -31 6 -25 33 5 27 3 29 -26 29 -28 0 -31 -3 -31 -30z m39 -73
c-10 -18 -13 -18 -20 -4 -13 23 0 51 17 36 10 -8 11 -16 3 -32z"/>
<path d="M1215 661 c-44 -18 -60 -50 -60 -116 0 -53 4 -67 24 -89 33 -35 88
-51 137 -39 33 7 40 13 42 37 3 25 2 26 -17 17 -22 -12 -70 -14 -96 -5 -13 5
-45 52 -45 67 0 2 38 1 85 -1 l85 -5 0 43 c0 77 -77 122 -155 91z m83 -47 c40
-28 28 -44 -34 -44 -47 0 -55 3 -52 17 2 10 14 23 28 30 32 16 31 16 58 -3z"/>
<path d="M1443 660 c-24 -10 -27 -18 -17 -44 5 -12 10 -13 25 -5 11 6 34 9 52
7 24 -2 33 -8 35 -25 3 -20 -1 -23 -30 -23 -18 0 -48 -9 -65 -20 -89 -54 -20
-171 74 -126 31 15 36 15 56 1 33 -23 57 -19 57 10 0 15 -6 25 -14 25 -11 0
-15 21 -17 86 -4 76 -7 88 -28 105 -25 20 -89 25 -128 9z m104 -150 c-5 -40
-18 -52 -53 -48 -59 6 -24 77 38 78 14 0 17 -7 15 -30z"/>
<path d="M2188 654 c-59 -31 -76 -124 -35 -185 27 -40 85 -63 137 -54 49 8 60
17 54 43 -5 17 -10 20 -24 12 -50 -27 -129 4 -130 50 0 12 16 15 82 15 l83 0
-1 39 c-3 78 -92 121 -166 80z m100 -46 c26 -26 13 -38 -43 -38 -59 0 -60 1
-45 31 12 22 68 27 88 7z"/>
<path d="M2380 665 c0 -3 18 -33 40 -66 l41 -59 -24 -33 c-14 -17 -32 -44 -42
-59 l-17 -28 34 0 c31 0 37 5 53 40 10 22 21 40 24 40 3 0 16 -18 29 -40 18
-33 28 -40 52 -40 17 0 30 2 30 6 0 3 -17 31 -39 62 l-38 57 38 55 c21 30 38
58 39 63 0 4 -13 7 -30 7 -24 0 -33 -7 -50 -40 -11 -22 -24 -40 -28 -40 -4 0
-16 17 -27 38 -16 29 -27 38 -52 40 -18 2 -33 0 -33 -3z"/>
</g>
</svg>
